<?xml version="1.0" ?><svg viewBox="0 0 64 64" xmlns="http://www.w3.org/2000/svg"><g data-name="Layer 27" id="Layer_27"><path d="M2,7H59V47l-5,9H8a6,6,0,0,1-6-6Z" style="fill:#428c1c"/><path d="M12,2H8A6,6,0,0,0,2,8H2V50H2a6,6,0,0,1,6-6h4Z" style="fill:#785349"/><path d="M32.04,56H8L6.727,53.432a4.927,4.927,0,0,1,1.938-6.446h0a4.92,4.92,0,0,1,2.477-.669h3.622V27.164L31.513,38.51Z" style="fill:#50a022"/><polygon points="12 28 21.03 32.86 13 56 18 56 21.47 46 30 46 31 42 22.86 42 29.1 24 44 24 44 31 48 31 48 18 59 18 59 14 48 14 48 7 44 7 44 20 30.49 20 35 7 30 7 22.49 28.65 12 23 12 28" style="fill:#f9cb5d"/><rect height="7" style="fill:#0059be" width="11" x="48" y="7"/><polygon points="12 7 12 23 22.49 28.65 30 7 12 7" style="fill:#0059be"/><polygon points="21.47 46 30 46 36.945 56 18 56 21.47 46" style="fill:#0059be"/><polygon points="29.1 24 22.86 42 31 42 44 31 44 24 29.1 24" style="fill:#0059be"/><circle cx="45" cy="45" r="17" style="fill:#e73844"/><polygon points="14.764 29.487 14.764 24.488 12 23 12 28 14.764 29.487" style="fill:#a57f32"/><polygon points="14.764 24.488 14.764 7 12 7 12 23 14.764 24.488" style="fill:#004180"/><path d="M6.445,2.211A6,6,0,0,0,2,8V50a6,6,0,0,1,4.445-5.789Z" style="fill:#6b4137"/><path d="M45,28a16.918,16.918,0,0,0-11.04,4.088A16.988,16.988,0,0,0,60.04,52.912,16.99,16.99,0,0,0,45,28Z" style="fill:#ff4d55"/><circle cx="45" cy="45" r="13" style="fill:#fff"/><path d="M51.966,51.966A12.464,12.464,0,0,0,57.458,48.7a12.893,12.893,0,0,0,0-7.4,12.464,12.464,0,0,0-5.492-3.267A12.473,12.473,0,0,0,48.7,32.542a12.893,12.893,0,0,0-7.4,0,12.473,12.473,0,0,0-3.267,5.492A12.464,12.464,0,0,0,32.542,41.3a12.893,12.893,0,0,0,0,7.4,12.464,12.464,0,0,0,5.492,3.267A12.473,12.473,0,0,0,41.3,57.458a12.893,12.893,0,0,0,7.4,0A12.473,12.473,0,0,0,51.966,51.966ZM56.812,44h-3.84a23.973,23.973,0,0,0-.41-3.618C54.753,41.287,56.306,42.566,56.812,44Zm-3.84,2h3.84c-.506,1.434-2.059,2.713-4.25,3.618A23.973,23.973,0,0,0,52.972,46ZM33.188,46h3.84a23.973,23.973,0,0,0,.41,3.618C35.247,48.713,33.694,47.434,33.188,46Zm3.84-2h-3.84c.506-1.434,2.059-2.713,4.25-3.618A23.973,23.973,0,0,0,37.028,44ZM44,56.812c-1.434-.506-2.713-2.059-3.618-4.25a23.973,23.973,0,0,0,3.618.41Zm0-5.838a21.374,21.374,0,0,1-4.343-.631A21.374,21.374,0,0,1,39.026,46H44ZM44,44H39.026a21.374,21.374,0,0,1,.631-4.343A21.374,21.374,0,0,1,44,39.026Zm0-6.972a23.973,23.973,0,0,0-3.618.41c.905-2.191,2.184-3.744,3.618-4.25Zm2-3.84c1.434.506,2.713,2.059,3.618,4.25A23.973,23.973,0,0,0,46,37.028Zm0,5.838a21.374,21.374,0,0,1,4.343.631A21.374,21.374,0,0,1,50.974,44H46ZM46,46h4.974a21.374,21.374,0,0,1-.631,4.343A21.374,21.374,0,0,1,46,50.974Zm0,10.812v-3.84a23.973,23.973,0,0,0,3.618-.41C48.713,54.753,47.434,56.306,46,56.812Z" style="fill:#c1cfe8"/></g></svg>